<svg
        class="icon"
        viewBox="0 0 1024 1024"
        version="1.1"
        xmlns="http://www.w3.org/2000/svg"
     width="200" height="200">
    <path
            fill="currentColor"  d="M818.6496 67.7504H205.3504a137.7536 137.7536 0 0 0-137.6 137.6v613.2992a137.7536 137.7536 0 0 0 137.6 137.6h613.2992a137.7536 137.7536 0 0 0 137.6-137.6V205.3504a137.7536 137.7536 0 0 0-137.6-137.6z m67.2 750.8992a67.2768 67.2768 0 0 1-67.2 67.2H205.3504a67.2768 67.2768 0 0 1-67.2-67.2V205.3504a67.2768 67.2768 0 0 1 67.2-67.2h613.2992a67.2768 67.2768 0 0 1 67.2 67.2z"
       />
    <path fill="currentColor" d="M568.7936 767.6928v-39.68H421.2992v-61.4784H568.704v-57.4848H427.52V547.84h141.2736v-42.624h59.4304V547.84H768v61.2352H628.224v57.4848H775.68v61.5168H628.224v39.68z m-215.6288-1.5232c-19.8656 0-33.28-2.6496-40.8448-8.1024-15.6928-11.6352-23.6416-27.7376-23.6416-47.9104V480.8192c0-14.8992-3.0848-20.1984-5.6832-22.016-1.5872-1.1392-5.4912-2.4832-15.36-2.4832H232.96v-2.56h-2.56v-57.0624h58.112c20.6848 0 36.1216 5.2992 45.888 15.7696 9.0624 9.7664 13.6448 24.96 13.6448 45.1968v226.3808c0 13.6704 1.92 17.6256 3.072 18.7776 1.7024 1.8176 6.08 3.9168 17.5232 3.9168h30.72v59.4304zM772.4288 512.64c-30.9888-7.9104-84.0192-22.4-162.112-44.16C552.1536 484.1344 488.96 498.9312 422.4 512.4864l-3.072 0.6144V451.84l45.44-10.4576 46.8224-10.8288c-20.736-12.0832-36.544-22.8608-48.2048-32.8448-10.8288-9.3056-25.4336-24.32-43.4176-44.5568l-3.776-4.2624h84.48l0.7168 0.6272a314.3552 314.3552 0 0 0 96 56.1664c30.2464-12.7232 54.2336-25.6 71.3216-38.4 18.9824-14.08 28.608-25.6 28.608-34.3424a6.4 6.4 0 0 0-3.2128-5.7472c-0.2816-0.1536-2.56-1.024-14.8096-1.024H419.3024v-59.4304h274.7776c32.6272 0 55.1552 5.9904 66.9824 17.8048a44.8 44.8 0 0 1 13.7088 32.6784c0 22.0416-10.24 44.8-30.272 67.7248-11.1488 12.6848-29.1968 27.6992-55.04 45.7984 30.72 8.5504 58.3168 15.36 84.16 20.7872l2.0352 0.4352v61.44zM230.4 325.9776v-59.4304h125.8496v59.4304z"
          />
</svg>
